<svg xmlns="http://www.w3.org/2000/svg" width="24" height="24" viewBox="0 0 24 24">
  <g id="Group_22868" data-name="Group 22868" transform="translate(-1471 -215.097)">
    <rect id="Rectangle_4143" data-name="Rectangle 4143" width="24" height="24" transform="translate(1471 215.097)" fill="none"/>
    <path id="home_4991416" d="M19.621,8.472,11.4.527a1.874,1.874,0,0,0-2.616,0L.57,8.472a1.869,1.869,0,0,0,1.308,3.212h.252v5.847A2.666,2.666,0,0,0,4.8,20.189H15.392a2.666,2.666,0,0,0,2.669-2.658V11.684h.252a1.87,1.87,0,0,0,1.308-3.212ZM12.17,18.81H8.02V14.46A1.283,1.283,0,0,1,9.3,13.18h1.581a1.284,1.284,0,0,1,1.285,1.279V18.81ZM18.771,10a.477.477,0,0,1-.458.307h-.943a.69.69,0,0,0-.692.689v6.536a1.283,1.283,0,0,1-1.285,1.279H13.554V14.46A2.666,2.666,0,0,0,10.886,11.8H9.3A2.666,2.666,0,0,0,6.636,14.46V18.81H4.8a1.284,1.284,0,0,1-1.285-1.279V10.995a.69.69,0,0,0-.692-.689H1.877a.492.492,0,0,1-.344-.845L9.751,1.516a.493.493,0,0,1,.689,0L18.657,9.46a.475.475,0,0,1,.114.538Z" transform="translate(1472.905 217.005)" fill="#fff"/>
  </g>
</svg>
