<svg xmlns="http://www.w3.org/2000/svg" width="24" height="24" viewBox="0 0 24 24">
  <g id="Group_22873" data-name="Group 22873" transform="translate(-1463.588 -305.588)">
    <rect id="Rectangle_4140" data-name="Rectangle 4140" width="24" height="24" transform="translate(1463.588 305.588)" fill="none"/>
    <g id="info_665049" transform="translate(1464 306)">
      <g id="Group_22852" data-name="Group 22852">
        <g id="Group_22851" data-name="Group 22851">
          <g id="Group_22853" data-name="Group 22853">
            <path id="Path_41961" data-name="Path 41961" d="M202,220.316a1.127,1.127,0,0,1-.68-.153.706.706,0,0,1-.195-.579,3.01,3.01,0,0,1,.063-.527,5.8,5.8,0,0,1,.137-.59l.622-2.139a3.239,3.239,0,0,0,.126-.648c0-.237.032-.4.032-.5a1.385,1.385,0,0,0-.49-1.1,2.06,2.06,0,0,0-1.391-.421,3.609,3.609,0,0,0-1.053.174q-.558.174-1.175.416l-.179.7c.121-.042.269-.09.437-.142a1.791,1.791,0,0,1,.5-.074,1.011,1.011,0,0,1,.669.163.764.764,0,0,1,.174.574,2.5,2.5,0,0,1-.058.527q-.055.277-.142.585l-.627,2.149a6.145,6.145,0,0,0-.121.606,3.762,3.762,0,0,0-.037.527,1.375,1.375,0,0,0,.527,1.09,2.107,2.107,0,0,0,1.412.432,3.25,3.25,0,0,0,1.053-.153q.448-.153,1.2-.437l.169-.664a2.908,2.908,0,0,1-.416.137A2,2,0,0,1,202,220.316Z" transform="translate(-188.863 -203.987)" fill="#162b5a"/>
            <path id="Path_41962" data-name="Path 41962" d="M251.1,128.385a1.6,1.6,0,0,0-2.107,0,1.259,1.259,0,0,0,0,1.907,1.58,1.58,0,0,0,2.107,0,1.265,1.265,0,0,0,0-1.907Z" transform="translate(-237.309 -122.196)" fill="#162b5a"/>
          </g>
          <path id="Path_41963" data-name="Path 41963" d="M11.588,0A11.588,11.588,0,1,0,23.177,11.588,11.588,11.588,0,0,0,11.588,0Zm0,22.123A10.535,10.535,0,1,1,22.123,11.588,10.535,10.535,0,0,1,11.588,22.123Z" fill="#162b5a" stroke="#162b5a" stroke-width="0.5"/>
        </g>
      </g>
    </g>
  </g>
</svg>
