<svg xmlns="http://www.w3.org/2000/svg" width="17.061" height="17.062" viewBox="0 0 17.061 17.062">
  <g id="Group_1000001605" data-name="Group 1000001605" transform="translate(-56.187 -678.938)">
    <path id="Path_41797" data-name="Path 41797" d="M284.619,209.074h-6.754a.533.533,0,0,1,0-1.066h6.754a.533.533,0,0,1,0,1.066Zm0,0" transform="translate(-211.904 477.862)" fill="red"/>
    <path id="Path_41798" data-name="Path 41798" d="M400.537,134.369a.534.534,0,0,1-.377-.911l2.289-2.289-2.289-2.289a.533.533,0,1,1,.754-.754l2.666,2.666a.533.533,0,0,1,0,.754l-2.666,2.666A.53.53,0,0,1,400.537,134.369Zm0,0" transform="translate(-330.488 555.233)" fill="red"/>
    <path id="Path_41799" data-name="Path 41799" d="M5.687,17.07A1.465,1.465,0,0,1,5.246,17L.968,15.578A1.435,1.435,0,0,1,0,14.226V1.43A1.423,1.423,0,0,1,1.422.008a1.466,1.466,0,0,1,.441.066L6.14,1.5a1.435,1.435,0,0,1,.968,1.352v12.8A1.423,1.423,0,0,1,5.687,17.07Zm-4.265-16a.357.357,0,0,0-.355.355v12.8a.369.369,0,0,0,.247.343l4.258,1.419A.386.386,0,0,0,5.687,16a.356.356,0,0,0,.355-.355V2.852A.369.369,0,0,0,5.8,2.509L1.537,1.09a.386.386,0,0,0-.116-.016Zm0,0" transform="translate(56.188 678.93)" fill="red"/>
    <path id="Path_41800" data-name="Path 41800" d="M36.62,5.7a.533.533,0,0,1-.533-.533v-3.2a.89.89,0,0,0-.889-.889h-8a.533.533,0,1,1,0-1.066h8a1.957,1.957,0,0,1,1.955,1.955v3.2A.533.533,0,0,1,36.62,5.7Zm0,0" transform="translate(30.406 678.93)" fill="red"/>
    <path id="Path_41801" data-name="Path 41801" d="M184.709,283.027h-2.844a.533.533,0,1,1,0-1.066h2.844a.89.89,0,0,0,.889-.889v-3.2a.533.533,0,1,1,1.066,0v3.2A1.957,1.957,0,0,1,184.709,283.027Zm0,0" transform="translate(-119.104 410.84)" fill="red"/>
  </g>
</svg>
