<svg xmlns="http://www.w3.org/2000/svg" xmlns:xlink="http://www.w3.org/1999/xlink" width="82" height="70.706" viewBox="0 0 82 70.706">
  <defs>
    <linearGradient id="linear-gradient" x1="0.458" y1="0.256" x2="0.077" y2="0.656" gradientUnits="objectBoundingBox">
      <stop offset="0" stop-color="#fff"/>
      <stop offset="1" stop-color="#7ea2ce"/>
    </linearGradient>
  </defs>
  <g id="Layer_1" data-name="Layer 1" transform="translate(0 0.001)">
    <g id="Group_4" data-name="Group 4" transform="translate(0 -0.001)">
      <g id="Group_1" data-name="Group 1" transform="translate(14.975 65.947)">
        <path id="Path_1" data-name="Path 1" d="M62.956,271.578H61.52v-.518h3.5v.518H63.572v4.2h-.616Z" transform="translate(-61.52 -271.026)" fill="#7ea2ce"/>
        <path id="Path_2" data-name="Path 2" d="M89.332,274.287l-.492,1.485h-.63l1.611-4.722h.728l1.611,4.722h-.652l-.5-1.485H89.33Zm1.555-.477-.47-1.358c-.1-.309-.175-.589-.246-.862h-.015c-.071.273-.141.567-.239.854l-.462,1.366h1.429Z" transform="translate(-81.713 -271.018)" fill="#7ea2ce"/>
        <path id="Path_3" data-name="Path 3" d="M122.18,275.79l-.609-1.044c-.246-.4-.392-.66-.538-.932h-.015c-.134.273-.273.526-.511.94l-.567,1.037h-.7l1.443-2.388L119.3,271.07H120l.623,1.108c.175.309.309.545.436.8h.022c.134-.28.253-.5.428-.8l.638-1.108h.708l-1.436,2.3,1.47,2.424h-.708Z" transform="translate(-105.19 -271.034)" fill="#7ea2ce"/>
        <path id="Path_4" data-name="Path 4" d="M170.83,271.06h2.544v.511h-1.925v1.57h1.779v.5h-1.779v2.137h-.616V271.06Z" transform="translate(-144.222 -271.026)" fill="#7ea2ce"/>
        <path id="Path_5" data-name="Path 5" d="M199.276,271.06v4.722h-.616V271.06Z" transform="translate(-165.278 -271.026)" fill="#7ea2ce"/>
        <path id="Path_6" data-name="Path 6" d="M219.37,271.017a7.115,7.115,0,0,1,1.171-.1,1.957,1.957,0,0,1,1.366.385,1.206,1.206,0,0,1,.372.9,1.239,1.239,0,0,1-.884,1.2v.022a1.184,1.184,0,0,1,.686.952,7.152,7.152,0,0,0,.365,1.295h-.63a5.919,5.919,0,0,1-.309-1.127c-.141-.652-.4-.9-.954-.918h-.574v2.045h-.609v-4.659Zm.609,2.152h.623c.652,0,1.064-.358,1.064-.9,0-.609-.441-.876-1.086-.876a2.784,2.784,0,0,0-.6.049v1.723Z" transform="translate(-180.947 -270.92)" fill="#7ea2ce"/>
        <path id="Path_7" data-name="Path 7" d="M252.239,273.716c-.034-.66-.075-1.458-.075-2.037h-.015c-.168.545-.358,1.142-.6,1.794l-.835,2.291h-.462l-.772-2.249c-.224-.672-.406-1.275-.54-1.835h-.015c-.015.589-.049,1.373-.09,2.089l-.127,2.025h-.582l.329-4.722h.776l.806,2.283c.195.582.351,1.1.477,1.589h.015c.127-.477.295-1,.5-1.589l.84-2.283h.779l.295,4.722h-.6l-.112-2.074Z" transform="translate(-202.706 -271.034)" fill="#7ea2ce"/>
      </g>
      <g id="Group_2" data-name="Group 2" transform="translate(0 47.036)">
        <path id="Path_8" data-name="Path 8" d="M4.647,203.12H2.566v3.68H0V194.16H4.647q4.5,0,4.5,4.386A4.673,4.673,0,0,1,8,201.94a4.465,4.465,0,0,1-3.354,1.181Zm-2.081-2.193H4.63q1.913,0,1.916-2.381a2.472,2.472,0,0,0-.465-1.682,1.868,1.868,0,0,0-1.451-.511H2.566v4.574Z" transform="translate(0 -193.934)" fill="#162b5a"/>
        <path id="Path_9" data-name="Path 9" d="M58.236,202.553v4.238H55.67V194.15h4.907q4.462,0,4.462,4.165a4,4,0,0,1-1.86,3.644l1.8,4.834H62.177l-1.468-4.238H58.236Zm3.736-2.751a2.284,2.284,0,0,0,.445-1.468,2.121,2.121,0,0,0-.475-1.451,1.727,1.727,0,0,0-1.366-.538H58.236v4.016h2.381a1.63,1.63,0,0,0,1.356-.557Z" transform="translate(-42.119 -193.926)" fill="#162b5a"/>
        <path id="Path_10" data-name="Path 10" d="M113.72,206.8V194.16H121.9v2.232h-5.613v2.955h4.5v2.193h-4.5v3.031H121.9v2.23Z" transform="translate(-86.039 -193.934)" fill="#162b5a"/>
        <path id="Path_11" data-name="Path 11" d="M172.785,205.908a16.939,16.939,0,0,1-3.551.428,6.767,6.767,0,0,1-2.529-.389,3.11,3.11,0,0,1-1.487-1.246,5.473,5.473,0,0,1-.742-2.008,17.062,17.062,0,0,1-.2-2.9q0-3.662,1.032-5.1t3.8-1.441a16.246,16.246,0,0,1,3.7.5l-.073,2.045a21.268,21.268,0,0,0-3.057-.28,3.44,3.44,0,0,0-1.738.326,2.006,2.006,0,0,0-.772,1.237,13.185,13.185,0,0,0-.251,3.1,6.372,6.372,0,0,0,.511,3.04,2.2,2.2,0,0,0,2.045.845,22.037,22.037,0,0,0,3.262-.26l.056,2.1Z" transform="translate(-124.284 -193.245)" fill="#162b5a"/>
        <path id="Path_12" data-name="Path 12" d="M218.5,206.8V194.16h2.566V206.8Z" transform="translate(-165.313 -193.934)" fill="#162b5a"/>
        <path id="Path_13" data-name="Path 13" d="M252.774,195.462q-2.026,0-2.025,1.339a1.013,1.013,0,0,0,.5.91,12.986,12.986,0,0,0,2.351.91,6.466,6.466,0,0,1,2.592,1.349,3.172,3.172,0,0,1,.742,2.315,3.721,3.721,0,0,1-1.207,3.011,4.727,4.727,0,0,1-3.16,1.022,17.636,17.636,0,0,1-3.551-.445l-.669-.131.26-1.989a30.816,30.816,0,0,0,3.812.336q1.972,0,1.972-1.636a1.088,1.088,0,0,0-.455-.93,6.429,6.429,0,0,0-1.813-.725,7.38,7.38,0,0,1-3.04-1.461,3.1,3.1,0,0,1-.884-2.351,3.421,3.421,0,0,1,1.151-2.826,4.891,4.891,0,0,1,3.16-.93,20.977,20.977,0,0,1,3.5.372l.669.131-.2,2.025q-2.622-.3-3.7-.3Z" transform="translate(-187.784 -193.23)" fill="#162b5a"/>
        <path id="Path_14" data-name="Path 14" d="M303.27,206.8V194.16h8.179v2.232h-5.613v2.955h4.5v2.193h-4.5v3.031h5.613v2.23Z" transform="translate(-229.449 -193.934)" fill="#162b5a"/>
      </g>
      <g id="Group_3" data-name="Group 3" transform="translate(27.876)">
        <path id="Path_15" data-name="Path 15" d="M132.485,15.369l-4.825,8.145,2.412,7.171-.908,4.732-.438,2.444s-.394,4.871-.394,5.433,4.17,3.948,4.632,3.948,3.656-2.069,3.656-3.069,1.19-8.882,1.568-9.257,2.911-2.692,3.43-2.692,5.294-1.7,5.978-2.383,1.869-5.326,1.869-5.326V20.756c0-1.628.533-6.862,0-7.4a4.464,4.464,0,0,0-2.317-1.314,31.031,31.031,0,0,0-3.887-.635c-1.687,0-3.444-.448-4.761,0s-3.413.667-3.883,1.137-2.13,2.819-2.13,2.819Z" transform="translate(-124.461 -8.483)" fill="#5f87be"/>
        <path id="Path_16" data-name="Path 16" d="M142.593,5.077A17.632,17.632,0,0,0,126.769.345L119.792,2.3l-1.39.372h0a5.448,5.448,0,0,0-3.883,4.851v.212h0V20.792c0,1.29.185,1.568.587,1.969a23.45,23.45,0,0,0,3.267,2.132l.041-1.8V11.1h0v-.212A5.445,5.445,0,0,1,122.3,6.036h0l1.39-.372,9.671-2.595h.007l.436-.117,0,.01c5.83-.944,8.787,2.118,8.787,2.118Z" transform="translate(-114.52 0.001)" fill="url(#linear-gradient)"/>
        <path id="Path_17" data-name="Path 17" d="M139.1,25.939a5.134,5.134,0,0,1-.56,1.906l-19.578,21.8h0A2.351,2.351,0,0,0,118.383,51v.256c0,.044.01.085.015.127a.031.031,0,0,0-.015,0V57.61s-3.542-2.945-3.629-3.033a1.09,1.09,0,0,1-.224-.684V48.241a.043.043,0,0,0,.015,0l-.015-.124v-.256a2.568,2.568,0,0,1,.579-1.429h0l16.913-20.739a3.783,3.783,0,0,0,.562-1.906s7.271-2.829,6.519,2.154Z" transform="translate(-114.528 -17.39)" fill="#7ea2ce"/>
        <path id="Path_18" data-name="Path 18" d="M189.184,73.055a2.093,2.093,0,0,1-2.824-2.067,3.952,3.952,0,0,1,2.824-3.581,2.094,2.094,0,0,1,2.824,2.067,3.946,3.946,0,0,1-2.824,3.578Z" transform="translate(-168.873 -50.923)" fill="#5f87be"/>
        <path id="Path_19" data-name="Path 19" d="M152.264,46.025a2.092,2.092,0,0,1-2.824-2.067,3.949,3.949,0,0,1,2.824-3.581,2.094,2.094,0,0,1,2.824,2.067,3.95,3.95,0,0,1-2.824,3.578Z" transform="translate(-140.94 -30.473)" fill="#5f87be"/>
        <path id="Path_20" data-name="Path 20" d="M145.736,10.614l0-.01-.438.117h-.01l-9.671,2.595-1.39.372h0a5.446,5.446,0,0,0-3.882,4.851v.212h0V30.74l.007,1.463c0,1.073,1.852.777,2.914-.57l14.688-17.509.058-.015a2.209,2.209,0,0,1,1.541,2.237,3.759,3.759,0,0,1-.562,1.906l-18.069,21.8h0a2.351,2.351,0,0,0-.579,1.351v.256c0,.044.01.085.015.127a.031.031,0,0,0-.015,0v6.227l7.763-2.079h0a5.432,5.432,0,0,0,3.883-4.924c0-.046,0-.092,0-.136h.007V36.587a2.753,2.753,0,0,1,1.925-2.181.093.093,0,0,0,.024-.007h0l1.346-.363c6.436-1.726,11.655-8.339,11.655-14.778S151.968,9.181,145.736,10.614Z" transform="translate(-126.489 -7.795)" fill="#162b5a"/>
        <path id="Path_21" data-name="Path 21" d="M194.735,72.391a1.849,1.849,0,0,1-2.5-1.826,3.487,3.487,0,0,1,2.5-3.162,1.847,1.847,0,0,1,2.493,1.826A3.49,3.49,0,0,1,194.735,72.391Z" transform="translate(-173.322 -50.929)" fill="#7ea2ce"/>
        <path id="Path_22" data-name="Path 22" d="M151.943,42.934a1.848,1.848,0,0,1-2.493-1.826,3.488,3.488,0,0,1,2.493-3.162,1.85,1.85,0,0,1,2.5,1.826A3.487,3.487,0,0,1,151.943,42.934Z" transform="translate(-140.947 -28.642)" fill="#7ea2ce"/>
      </g>
    </g>
  </g>
</svg>
