<svg xmlns="http://www.w3.org/2000/svg" width="90.143" height="61.975" viewBox="0 0 90.143 61.975">
  <g id="candidate_9942379" transform="translate(0.002 -10)">
    <path id="Path_41973" data-name="Path 41973" d="M34.86,31.128A9.871,9.871,0,0,1,25,21.268V19.86a9.86,9.86,0,1,1,19.719,0v1.409A9.871,9.871,0,0,1,34.86,31.128Zm0-18.311a7.051,7.051,0,0,0-7.043,7.043v1.409a7.043,7.043,0,1,0,14.085,0V19.86a7.051,7.051,0,0,0-7.043-7.043Z" transform="translate(10.214 0)" fill="#162b5a"/>
    <path id="Path_41974" data-name="Path 41974" d="M55.621,37.268H52.8V33.043a4.226,4.226,0,0,0-4.226-4.226H26.043a4.226,4.226,0,0,0-4.226,4.226v4.226H19V33.043A7.051,7.051,0,0,1,26.043,26H48.579a7.051,7.051,0,0,1,7.043,7.043Z" transform="translate(7.763 6.536)" fill="#162b5a"/>
    <path id="Path_41975" data-name="Path 41975" d="M45.2,62.56a1.408,1.408,0,0,1-.655-.162l-8.05-4.226L28.444,62.4A1.409,1.409,0,0,1,26.4,60.913l1.537-8.951-6.512-6.338a1.409,1.409,0,0,1,.78-2.4l9-1.307,4.02-8.148a1.466,1.466,0,0,1,2.524,0l4.026,8.145,9,1.307a1.409,1.409,0,0,1,.78,2.4L45.045,51.96l1.537,8.951A1.409,1.409,0,0,1,45.2,62.56Zm-8.7-7.389a1.4,1.4,0,0,1,.655.162l6.179,3.24-1.179-6.858a1.4,1.4,0,0,1,.4-1.247l5-4.865-6.9-1a1.409,1.409,0,0,1-1.061-.77l-3.095-6.261L33.4,43.827a1.409,1.409,0,0,1-1.061.77l-6.9,1,5,4.861a1.4,1.4,0,0,1,.4,1.247l-1.179,6.871,6.179-3.24a1.4,1.4,0,0,1,.652-.168Z" transform="translate(8.58 9.415)" fill="#162b5a"/>
    <path id="Path_41976" data-name="Path 41976" d="M66.2,57.56a1.409,1.409,0,0,1-.655-.162l-8.05-4.226L49.444,57.4A1.409,1.409,0,0,1,47.4,55.913l1.537-8.951-6.512-6.338a1.409,1.409,0,0,1,.78-2.4l9-1.307,4.02-8.148a1.466,1.466,0,0,1,2.524,0l4.026,8.145,9,1.307a1.409,1.409,0,0,1,.78,2.4L66.045,46.96l1.537,8.951A1.409,1.409,0,0,1,66.2,57.56Zm-8.7-7.389a1.4,1.4,0,0,1,.655.162l6.179,3.24-1.179-6.858a1.4,1.4,0,0,1,.4-1.247l5-4.865-6.9-1a1.409,1.409,0,0,1-1.061-.77l-3.095-6.261L54.4,38.827a1.409,1.409,0,0,1-1.061.77l-6.9,1,5,4.861a1.4,1.4,0,0,1,.4,1.247l-1.179,6.871,6.179-3.24a1.4,1.4,0,0,1,.652-.168Z" transform="translate(17.158 7.372)" fill="#162b5a"/>
    <path id="Path_41977" data-name="Path 41977" d="M24.2,57.56a1.409,1.409,0,0,1-.655-.162l-4.479-2.352-3.571-1.875L7.445,57.4A1.409,1.409,0,0,1,5.4,55.912l1.537-8.951L.424,40.621a1.409,1.409,0,0,1,.78-2.4l9-1.307,4.023-8.145a1.466,1.466,0,0,1,2.524,0l4.026,8.145,9,1.307a1.409,1.409,0,0,1,.78,2.4L24.046,46.96l1.537,8.951A1.409,1.409,0,0,1,24.2,57.56Zm-3.824-5.007,1.954,1.025L21.15,46.714a1.4,1.4,0,0,1,.4-1.247l5-4.865-6.9-1a1.408,1.408,0,0,1-1.061-.77l-3.095-6.261L12.4,38.827a1.409,1.409,0,0,1-1.061.77l-6.9,1,5,4.861a1.4,1.4,0,0,1,.4,1.247L8.663,53.578l6.179-3.24a1.409,1.409,0,0,1,1.31,0Z" transform="translate(0 7.372)" fill="#162b5a"/>
  </g>
</svg>
