<svg xmlns="http://www.w3.org/2000/svg" xmlns:xlink="http://www.w3.org/1999/xlink" width="71" height="71" viewBox="0 0 71 71">
  <defs>
    <filter id="Rectangle_25" x="0" y="0" width="71" height="71" filterUnits="userSpaceOnUse">
      <feOffset dx="-1" dy="4" input="SourceAlpha"/>
      <feGaussianBlur stdDeviation="6" result="blur"/>
      <feFlood flood-opacity="0.259"/>
      <feComposite operator="in" in2="blur"/>
      <feComposite in="SourceGraphic"/>
    </filter>
  </defs>
  <g id="Group_18776" data-name="Group 18776" transform="translate(19.256 14)">
    <g transform="matrix(1, 0, 0, 1, -19.26, -14)" filter="url(#Rectangle_25)">
      <g id="Rectangle_25-2" data-name="Rectangle 25" transform="translate(19 14)" fill="rgba(52,42,239,0)" stroke="#111" stroke-width="1">
        <rect width="35" height="35" rx="17.5" stroke="none"/>
        <rect x="0.5" y="0.5" width="34" height="34" rx="17" fill="none"/>
      </g>
    </g>
    <g id="instagram" transform="translate(8.644 9.351)">
      <path id="Path_8" data-name="Path 8" d="M12.4,4c-2.282,0-2.568.01-3.465.05A6.18,6.18,0,0,0,6.9,4.441,4.29,4.29,0,0,0,4.441,6.9a6.18,6.18,0,0,0-.391,2.04C4.009,9.835,4,10.121,4,12.4s.009,2.568.05,3.465a6.18,6.18,0,0,0,.391,2.039A4.29,4.29,0,0,0,6.9,20.366a6.18,6.18,0,0,0,2.039.391c.9.04,1.182.05,3.465.05s2.568-.01,3.465-.05a6.18,6.18,0,0,0,2.039-.391,4.29,4.29,0,0,0,2.458-2.458,6.18,6.18,0,0,0,.391-2.039c.04-.9.05-1.182.05-3.465s-.01-2.568-.05-3.465A6.18,6.18,0,0,0,20.366,6.9a4.29,4.29,0,0,0-2.458-2.458,6.181,6.181,0,0,0-2.04-.391C14.971,4.01,14.686,4,12.4,4m0,1.514c2.244,0,2.509.008,3.395.049a4.667,4.667,0,0,1,1.561.289,2.782,2.782,0,0,1,1.595,1.595,4.666,4.666,0,0,1,.289,1.561c.04.887.049,1.151.049,3.4s-.008,2.509-.049,3.395a4.689,4.689,0,0,1-.289,1.561,2.782,2.782,0,0,1-1.595,1.595,4.666,4.666,0,0,1-1.561.289c-.886.04-1.151.049-3.4.049s-2.51-.008-3.395-.049a4.689,4.689,0,0,1-1.561-.289A2.782,2.782,0,0,1,5.852,17.36,4.644,4.644,0,0,1,5.563,15.8c-.04-.887-.049-1.151-.049-3.4s.008-2.509.049-3.395a4.667,4.667,0,0,1,.289-1.561A2.782,2.782,0,0,1,7.447,5.852a4.644,4.644,0,0,1,1.561-.289c.887-.04,1.151-.049,3.4-.049m0,9.69a2.8,2.8,0,1,1,2.8-2.8,2.8,2.8,0,0,1-2.8,2.8m0-7.116A4.315,4.315,0,1,0,16.719,12.4,4.315,4.315,0,0,0,12.4,8.088M17.9,7.918a1.008,1.008,0,1,1-1.008-1.008A1.008,1.008,0,0,1,17.9,7.918" transform="translate(-4 -4)" fill="#111" fill-rule="evenodd"/>
    </g>
  </g>
</svg>
