<svg xmlns="http://www.w3.org/2000/svg" xmlns:xlink="http://www.w3.org/1999/xlink" width="71" height="71" viewBox="0 0 71 71">
  <defs>
    <filter id="Rectangle_23" x="0" y="0" width="71" height="71" filterUnits="userSpaceOnUse">
      <feOffset dx="-1" dy="4" input="SourceAlpha"/>
      <feGaussianBlur stdDeviation="6" result="blur"/>
      <feFlood flood-opacity="0.259"/>
      <feComposite operator="in" in2="blur"/>
      <feComposite in="SourceGraphic"/>
    </filter>
  </defs>
  <g id="Group_18775" data-name="Group 18775" transform="translate(19 14)">
    <g transform="matrix(1, 0, 0, 1, -19, -14)" filter="url(#Rectangle_23)">
      <g id="Rectangle_23-2" data-name="Rectangle 23" transform="translate(19 14)" fill="rgba(52,42,239,0)" stroke="#111" stroke-width="1">
        <rect width="35" height="35" rx="17.5" stroke="none"/>
        <rect x="0.5" y="0.5" width="34" height="34" rx="17" fill="none"/>
      </g>
    </g>
    <path id="facebook" d="M5.3,15.832H2.414v-7.1H0V5.956H2.414V3.907A3.583,3.583,0,0,1,3.4,1.2,3.637,3.637,0,0,1,6.036.249a17.273,17.273,0,0,1,2.158.11V2.809l-1.5.036a1.438,1.438,0,0,0-1.1.329,1.448,1.448,0,0,0-.293.988V5.955h2.78l-.366,2.78H5.3v7.1Z" transform="translate(13.608 9.408)" fill="#111"/>
  </g>
</svg>
