<svg xmlns="http://www.w3.org/2000/svg" width="32.429" height="32.477" viewBox="0 0 32.429 32.477">
  <g id="phone-call_126509_1_" data-name="phone-call_126509 (1)" transform="translate(-0.344 0)">
    <g id="Group_1000001272" data-name="Group 1000001272" transform="translate(0.344 0)">
      <path id="Path_41947" data-name="Path 41947" d="M25.988,45.646a3.194,3.194,0,0,0-2.317-1.062,3.3,3.3,0,0,0-2.344,1.056L19.161,47.8c-.178-.1-.356-.185-.528-.274-.247-.123-.48-.24-.679-.363a23.541,23.541,0,0,1-5.641-5.141,13.889,13.889,0,0,1-1.851-2.92c.562-.514,1.083-1.049,1.59-1.563.192-.192.384-.391.576-.583a3.145,3.145,0,0,0,0-4.743L10.757,30.34c-.212-.212-.432-.432-.637-.651-.411-.425-.843-.864-1.289-1.275a3.245,3.245,0,0,0-2.3-1.008A3.358,3.358,0,0,0,4.2,28.414l-.014.014L1.86,30.778A5.015,5.015,0,0,0,.373,33.966a12.016,12.016,0,0,0,.877,5.086A29.513,29.513,0,0,0,6.494,47.8a32.256,32.256,0,0,0,10.741,8.41,16.735,16.735,0,0,0,6.032,1.782c.144.007.295.014.432.014a5.165,5.165,0,0,0,3.955-1.7c.007-.014.021-.021.027-.034a15.583,15.583,0,0,1,1.2-1.241c.295-.281.6-.576.891-.884a3.419,3.419,0,0,0,1.035-2.372,3.294,3.294,0,0,0-1.056-2.351Zm2.454,7.218c-.007,0-.007.007,0,0-.267.288-.542.548-.836.836a18.025,18.025,0,0,0-1.323,1.371,3.3,3.3,0,0,1-2.577,1.09c-.1,0-.212,0-.315-.007a14.867,14.867,0,0,1-5.346-1.6A30.448,30.448,0,0,1,7.926,46.626a27.827,27.827,0,0,1-4.935-8.218,9.787,9.787,0,0,1-.768-4.291,3.147,3.147,0,0,1,.946-2.036l2.337-2.337a1.558,1.558,0,0,1,1.042-.487,1.466,1.466,0,0,1,1,.48l.021.021c.418.391.816.8,1.234,1.227.212.219.432.439.651.665l1.871,1.871a1.308,1.308,0,0,1,0,2.125c-.2.2-.391.4-.589.589-.576.589-1.124,1.138-1.72,1.672-.014.014-.027.021-.034.034A1.4,1.4,0,0,0,8.625,39.5l.021.062a15.023,15.023,0,0,0,2.214,3.612l.007.007a25.158,25.158,0,0,0,6.087,5.538,9.358,9.358,0,0,0,.843.459c.247.123.48.24.679.363.027.014.055.034.082.048a1.486,1.486,0,0,0,.679.171,1.466,1.466,0,0,0,1.042-.473l2.344-2.344a1.551,1.551,0,0,1,1.035-.514,1.4,1.4,0,0,1,.987.5l.014.014,3.777,3.777A1.355,1.355,0,0,1,28.441,52.863Z" transform="translate(-0.344 -25.528)"/>
      <path id="Path_41948" data-name="Path 41948" d="M245.705,87.761a8.822,8.822,0,0,1,7.183,7.183.92.92,0,0,0,.912.768,1.222,1.222,0,0,0,.158-.014.926.926,0,0,0,.761-1.069,10.667,10.667,0,0,0-8.691-8.691.93.93,0,0,0-1.069.754A.915.915,0,0,0,245.705,87.761Z" transform="translate(-228.178 -80.036)"/>
      <path id="Path_41949" data-name="Path 41949" d="M264.162,14.326A17.564,17.564,0,0,0,249.85.014a.924.924,0,1,0-.3,1.823,15.688,15.688,0,0,1,12.79,12.79.92.92,0,0,0,.912.768,1.223,1.223,0,0,0,.158-.014A.908.908,0,0,0,264.162,14.326Z" transform="translate(-231.747 0)"/>
    </g>
  </g>
</svg>
