<svg xmlns="http://www.w3.org/2000/svg" width="61.787" height="61.975" viewBox="0 0 61.787 61.975">
  <path id="startup_6883708" d="M52.416,34.8C59.7,26.277,63.087,14.9,62.5.994A.968.968,0,0,0,61.57.067c-13.908-.59-25.284,2.8-33.812,10.081a40.123,40.123,0,0,0-4.308,4.287.971.971,0,0,0-.128,0L10.009,15.823a.968.968,0,0,0-.743.488L1.5,30.089a.968.968,0,0,0,.8,1.443l11.6.478a73.572,73.572,0,0,0-2.271,8.977.968.968,0,0,0,.266.865l8.812,8.812a.969.969,0,0,0,.865.266,73.6,73.6,0,0,0,8.977-2.271l.478,11.6a.968.968,0,0,0,1.443.8L46.252,53.3a.968.968,0,0,0,.486-.732l1.536-13.251A.963.963,0,0,0,48.258,39,40.083,40.083,0,0,0,52.416,34.8ZM14.457,30.094l-10.5-.432L10.707,17.7,21.742,16.55A50.6,50.6,0,0,0,14.555,30.1Zm-.824,10.751a70.532,70.532,0,0,1,2.256-8.671,17.163,17.163,0,0,1,14.5,14.5,70.491,70.491,0,0,1-8.67,2.256ZM44.872,51.853,32.9,58.6l-.42-10.2c0-.132-.011-.263-.018-.394a50.478,50.478,0,0,0,13.7-7.3Zm-12.621-5.83A18.962,18.962,0,0,0,16.54,30.313c7.1-19.26,22.138-29,44.054-28.343C61.249,23.884,51.51,38.923,32.252,46.023ZM1.88,60.683a.968.968,0,0,1,0-1.369l8.989-8.989a.968.968,0,0,1,1.37,1.369L3.25,60.683a.968.968,0,0,1-1.37,0Zm.549-10.5a.968.968,0,1,1-1.369-1.369l4.147-4.147a.969.969,0,0,1,1.37,1.369ZM12.572,61.692a.968.968,0,0,1,0-1.369l4.148-4.147a.968.968,0,1,1,1.37,1.369l-4.147,4.147a.968.968,0,0,1-1.37,0ZM54.356,16.516l-1.271-.229a10.162,10.162,0,0,0-.483-1.165l.737-1.06a1.652,1.652,0,0,0-.188-2.114L51.079,9.876a1.653,1.653,0,0,0-2.113-.188l-1.061.737a10.17,10.17,0,0,0-1.165-.483l-.229-1.271A1.652,1.652,0,0,0,44.884,7.31H41.953a1.652,1.652,0,0,0-1.627,1.361L40.1,9.942a10.177,10.177,0,0,0-1.165.483l-1.061-.737a1.652,1.652,0,0,0-2.113.189l-2.072,2.073a1.653,1.653,0,0,0-.188,2.113l.737,1.06a10.192,10.192,0,0,0-.483,1.165l-1.271.229a1.652,1.652,0,0,0-1.361,1.627v2.931A1.652,1.652,0,0,0,32.481,22.7l1.271.229a10.182,10.182,0,0,0,.483,1.165l-.737,1.06a1.652,1.652,0,0,0,.189,2.113l2.072,2.072a1.653,1.653,0,0,0,2.113.188l1.06-.737a10.162,10.162,0,0,0,1.165.483l.229,1.271a1.652,1.652,0,0,0,1.627,1.361h2.931a1.652,1.652,0,0,0,1.627-1.361l.229-1.271a10.177,10.177,0,0,0,1.165-.483l1.061.737a1.652,1.652,0,0,0,2.113-.189l2.072-2.072a1.652,1.652,0,0,0,.188-2.113L52.6,24.095a10.162,10.162,0,0,0,.483-1.165l1.271-.229a1.652,1.652,0,0,0,1.361-1.627V18.143a1.652,1.652,0,0,0-1.361-1.627Zm-.576,4.321-1.616.291a.968.968,0,0,0-.762.695,8.248,8.248,0,0,1-.773,1.864.968.968,0,0,0,.047,1.03l.938,1.349L49.877,27.8l-1.349-.938a.968.968,0,0,0-1.03-.047,8.238,8.238,0,0,1-1.864.773.968.968,0,0,0-.695.762l-.291,1.616H42.19L41.9,28.353a.968.968,0,0,0-.695-.762,8.239,8.239,0,0,1-1.864-.773.968.968,0,0,0-1.03.047l-1.349.938-1.738-1.738.938-1.349a.968.968,0,0,0,.047-1.03,8.239,8.239,0,0,1-.773-1.864.968.968,0,0,0-.762-.695l-1.616-.291V18.38l1.616-.291a.968.968,0,0,0,.762-.695,8.247,8.247,0,0,1,.773-1.864.968.968,0,0,0-.047-1.03l-.938-1.349,1.737-1.738,1.349.938a.968.968,0,0,0,1.03.047,8.241,8.241,0,0,1,1.864-.773.968.968,0,0,0,.7-.762l.291-1.616h2.457l.291,1.616a.968.968,0,0,0,.695.762A8.238,8.238,0,0,1,47.5,12.4a.968.968,0,0,0,1.03-.047l1.349-.938,1.737,1.738L50.676,14.5a.968.968,0,0,0-.047,1.03,8.249,8.249,0,0,1,.773,1.864.968.968,0,0,0,.762.695l1.616.291ZM43.419,14.089a5.52,5.52,0,1,0,5.52,5.52,5.52,5.52,0,0,0-5.52-5.52Zm0,9.1A3.583,3.583,0,1,1,47,19.608a3.583,3.583,0,0,1-3.583,3.583Z" transform="translate(-0.776 -0.001)" fill="#162b5a"/>
</svg>
